<?xml version="1.0" encoding="UTF-8"?>
<svg width="100mm" height="100mm" version="1.1" viewBox="0 0 100 100" xmlns="http://www.w3.org/2000/svg">
 <path d="m45.2 35.04c-2.6315 0-4.8 2.3853-4.8 5.28v19.36c0 2.8947 2.1685 5.28 4.8 5.28h9.6c2.6315 0 4.8-2.3853 4.8-5.28v-19.36c0-2.8947-2.1685-5.28-4.8-5.28z" class="background"/>
 <path d="m44 33c-3.2894 0-6 2.7106-6 6v22c0 3.2894 2.7106 6 6 6h12c3.2894 0 6-2.7106 6-6v-22c0-3.2894-2.7106-6-6-6zm0 4h12c1.1426 0 2 0.8574 2 2v22c0 1.1426-0.8574 2-2 2h-12c-1.1426 0-2-0.8574-2-2v-22c0-1.1426 0.8574-2 2-2z"/>
 <path d="m42.888 34.051a1.5 1.5 0 0 0-1.1386 0.15039 1.5 1.5 0 0 0-0.54885 2.0488l7.5 13a1.5002 1.5002 0 0 0 2.5976 0l7.5-13a1.5 1.5 0 0 0-0.54885-2.0488 1.5 1.5 0 0 0-2.0488 0.54885l-6.201 10.749-6.201-10.749a1.5 1.5 0 0 0-0.91015-0.6992z"/>
 <path d="m50 50a1.5002 1.5002 0 0 0-1.2988 0.75l-7.5 13a1.5 1.5 0 0 0 0.54885 2.0488 1.5 1.5 0 0 0 2.0488-0.54885l6.201-10.749 6.201 10.749a1.5 1.5 0 0 0 2.0488 0.54885 1.5 1.5 0 0 0 0.54885-2.0488l-7.5-13a1.5002 1.5002 0 0 0-1.2988-0.75z"/>
</svg>
