<?xml version="1.0" encoding="UTF-8"?>
<svg width="100mm" height="100mm" version="1.1" viewBox="0 0 100 100" xmlns="http://www.w3.org/2000/svg">
 <path d="m39.458 39.458h21.084v21.084h-21.084z" class="background"/>
 <path d="m41.732 36.771c-2.7197 0-4.9609 2.2412-4.9609 4.9609v16.536c0 2.7197 2.2412 4.9609 4.9609 4.9609h16.536c2.7197 0 4.9609-2.2412 4.9609-4.9609v-16.536c0-2.7197-2.2412-4.9609-4.9609-4.9609zm0 3.3073h16.536c0.94473 0 1.6536 0.70892 1.6536 1.6536v16.536c0 0.94473-0.70892 1.6536-1.6536 1.6536h-16.536c-0.94473 0-1.6536-0.70892-1.6536-1.6536v-16.536c0-0.94473 0.70892-1.6536 1.6536-1.6536z" />
 <path d="m50 42.559c-4.0951 0-7.4414 3.3463-7.4414 7.4414s3.3463 7.4414 7.4414 7.4414 7.4414-3.3463 7.4414-7.4414-3.3463-7.4414-7.4414-7.4414zm0 2.4805c2.7546 0 4.9609 2.2064 4.9609 4.9609s-2.2064 4.9609-4.9609 4.9609-4.9609-2.2064-4.9609-4.9609 2.2064-4.9609 4.9609-4.9609z" />
 <path d="m52.48 50c0 1.3699-1.1105 2.4805-2.4805 2.4805s-2.4805-1.1105-2.4805-2.4805 1.1105-2.4805 2.4805-2.4805 2.4805 1.1105 2.4805 2.4805z" />
</svg>
