<?xml version="1.0" encoding="UTF-8"?>
<svg width="100mm" height="100mm" version="1.1" viewBox="0 0 100 100" xmlns="http://www.w3.org/2000/svg">
 <path d="m42.559 38.094c-2.4478 0-4.4648 2.0171-4.4648 4.4648v14.883c0 2.4478 2.0171 4.4648 4.4648 4.4648h14.883c2.4478 0 4.4648-2.0171 4.4648-4.4648v-14.883c0-2.4478-2.0171-4.4648-4.4648-4.4648z" class="background" />
 <path d="m41.732 36.771c-2.7197 0-4.9609 2.2412-4.9609 4.9609v16.536c0 2.7197 2.2412 4.9609 4.9609 4.9609h16.536c2.7197 0 4.9609-2.2412 4.9609-4.9609v-16.536c0-2.7197-2.2412-4.9609-4.9609-4.9609zm0 3.3073h16.536c0.94472 0 1.6536 0.70891 1.6536 1.6536v16.536c0 0.94472-0.70891 1.6536-1.6536 1.6536h-16.536c-0.94472 0-1.6536-0.70891-1.6536-1.6536v-16.536c0-0.94472 0.70891-1.6536 1.6536-1.6536z" />
 <path d="m50 57.893c-0.19864-5e-6 -0.38258-0.10542-0.48382-0.27731l-2.8118-4.7749c-0.22204-0.37706 0.04814-0.85395 0.48382-0.854h1.6867l-1.54e-4 -8.7555c0-0.62325 0.5018-1.1251 1.1251-1.1251s1.1249 0.50185 1.1249 1.1251l1.54e-4 8.7555h1.6868c0.43571 6e-5 0.70585 0.47692 0.48382 0.854l-2.8118 4.7749c-0.10127 0.17189-0.28519 0.27731-0.48382 0.27731z" />
</svg>
