<?xml version="1.0" encoding="UTF-8"?>
<svg width="100mm" height="100mm" version="1.1" viewBox="0 0 100 100" xmlns="http://www.w3.org/2000/svg">
 <path d="m19 19v62h62v-62zm8 8h46v46h-46z" fill-rule="evenodd"/>
 <g transform="scale(.26458)" style="shape-inside:url(#rect3708);white-space:pre" aria-label="?">
  <path d="m208.78 171.19c0 3.0625-0.54688 5.7969-1.6406 8.2031-1.0938 2.375-2.5312 4.4844-4.3125 6.3281-1.75 1.7812-3.7656 3.4531-6.0469 5.0156s-4.7031 3.0781-7.2656 4.5469v10.547h-8.3906v-14.297c2.0312-1.1562 4.2188-2.4219 6.5625-3.7969 2.375-1.375 4.3125-2.7656 5.8125-4.1719 1.8125-1.625 3.2188-3.2969 4.2188-5.0156 1-1.75 1.5-3.9688 1.5-6.6562 0-3.5313-1.2031-6.1563-3.6094-7.875-2.375-1.75-5.4531-2.625-9.2344-2.625-3.375 0-6.5781 0.53125-9.6094 1.5938-3 1.0625-5.375 2.1406-7.125 3.2344h-0.46875v-9.5625c2.1875-0.84375 4.9531-1.5938 8.2969-2.25 3.375-0.6875 6.5625-1.0312 9.5625-1.0312 6.7188 0 12.016 1.6406 15.891 4.9219 3.9062 3.25 5.8594 7.5469 5.8594 12.891zm-18.516 53.391h-9.5625v-9.8906h9.5625z"/>
 </g>
</svg>
