<?xml version="1.0" encoding="UTF-8"?>
<svg width="100mm" height="100mm" version="1.1" viewBox="0 0 100 100" xmlns="http://www.w3.org/2000/svg">
 <path d="m91.417 8.5833c-0.49944-0.49942-1.2269-0.6968-1.9136-0.51924l-19.074 4.9356c-1.5063 0.38979-2.026 2.268-0.93069 3.3636l4.2406 4.2406-64.439 64.439c-1.5669 1.5669-1.567 4.0904-2.8e-5 5.6574 1.5669 1.567 4.09 1.5665 5.6569-4.78e-4l64.439-64.439 4.2409 4.2409c1.0956 1.0953 2.9738 0.57558 3.3636-0.93069l4.9356-19.074c0.17755-0.68678-0.0198-1.4142-0.51924-1.9136z"/>
 <path d="m24 40h52c4.432 0 8 3.568 8 8v4c0 4.432-3.568 8-8 8h-52c-4.432 0-8-3.568-8-8v-4c0-4.432 3.568-8 8-8z" stroke-linejoin="round" stroke-width="4"/>
</svg>
