<?xml version="1.0" encoding="UTF-8"?>
<svg width="100mm" height="100mm" version="1.1" viewBox="0 0 100 100" xmlns="http://www.w3.org/2000/svg">
 <path d="m7.5736 44.343 36.77-36.77c3.1339-3.1339 8.1798-3.1339 11.314 0l36.77 36.77c3.1339 3.1339 3.1339 8.1798 0 11.314l-36.77 36.77c-3.1339 3.1339-8.1798 3.1339-11.314 0l-36.77-36.77c-3.1339-3.1339-3.1339-8.1798 0-11.314z" class="background"/>
 <path d="m50 1.2559c-3.0797 0-6.1584 1.1643-8.4844 3.4902l-36.77 36.77c-4.6519 4.6519-4.6519 12.317 0 16.969l36.77 36.77c4.6519 4.6519 12.317 4.6519 16.969 0l36.77-36.77c4.6519-4.6519 4.6519-12.317 0-16.969l-36.77-36.77c-2.326-2.326-5.4047-3.4902-8.4844-3.4902zm0 7.9336c1.0102 0 2.0202 0.40495 2.8281 1.2129l36.77 36.77c1.6159 1.6159 1.6159 4.0404 0 5.6562l-36.77 36.77c-1.6159 1.6159-4.0404 1.6159-5.6562 0l-36.77-36.77c-1.6159-1.6159-1.6159-4.0404 0-5.6562l36.77-36.77c0.80794-0.80794 1.8179-1.2129 2.8281-1.2129z" stop-color="#000000"/>
 <path d="m50 21.809c-1.7985 0-3.5965 0.67656-4.9492 2.0293l-21.213 21.213c-2.7055 2.7055-2.7055 7.193 0 9.8984l21.213 21.213c2.7055 2.7055 7.193 2.7055 9.8984 0l21.213-21.213c2.7055-2.7055 2.7055-7.193 0-9.8984l-21.213-21.213c-1.3527-1.3527-3.1507-2.0293-4.9492-2.0293zm0 5.9492c0.24645 0 0.49282 0.10805 0.70703 0.32227l21.213 21.213c0.42843 0.42843 0.42843 0.98563 0 1.4141l-21.213 21.213c-0.42843 0.42843-0.98563 0.42843-1.4141 0l-21.213-21.213c-0.42843-0.42843-0.42843-0.98563 0-1.4141l21.213-21.213c0.21422-0.21422 0.46058-0.32227 0.70703-0.32227z" stop-color="#000000"/>
 <path d="m40.101 48.586 8.4853-8.4853c0.78347-0.78347 2.045-0.78347 2.8284 0l8.4853 8.4853c0.78348 0.78348 0.78348 2.045 0 2.8284l-8.4853 8.4853c-0.78347 0.78347-2.045 0.78347-2.8284 0l-8.4853-8.4853c-0.78348-0.78348-0.78348-2.045 0-2.8284z"/>
</svg>
