<?xml version="1.0" encoding="UTF-8"?>
<svg width="100mm" height="100mm" version="1.1" viewBox="0 0 100 100" xmlns="http://www.w3.org/2000/svg">
 <path d="m33.8 15.3c-5.9209 0-10.8 4.8791-10.8 10.8v37.8c0 5.9209 4.8791 10.8 10.8 10.8h32.4c5.9209 0 10.8-4.8791 10.8-10.8v-37.8c0-5.9209-4.8791-10.8-10.8-10.8z" class="background" />
 <path d="m32 12c-6.5788 0-12 5.4215-12 12v42c0 5.3408 3.5732 9.9187 8.4377 11.453l-2.2732 6.567a3 3 0 0 0 1.8552 3.8163 3 3 0 0 0 3.8163-1.8557l2.7616-7.9804h30.805l2.7631 7.9804a3 3 0 0 0 3.8163 1.8557 3 3 0 0 0 1.8536-3.8163l-2.2732-6.567c4.8645-1.5338 8.4372-6.1117 8.4372-11.453v-42c0-6.5788-5.421-12-12-12h-36zm0 8h36c2.2852 0 4.0003 1.7151 4.0003 4.0003v42c0 2.2852-1.7151 3.9998-4.0003 3.9998h-36c-2.2852 0-4.0003-1.7146-4.0003-3.9998v-42c0-2.2852 1.7151-4.0003 4.0003-4.0003z" stop-color="#000000" stroke-linecap="round" stroke-linejoin="round"/>
 <path d="m40 54a4 4 0 0 1-4 4 4 4 0 0 1-4-4 4 4 0 0 1 4-4 4 4 0 0 1 4 4z" stroke-linecap="round" stroke-linejoin="round" stroke-width="8"/>
 <path d="m68 54a4 4 0 0 1-4 4 4 4 0 0 1-4-4 4 4 0 0 1 4-4 4 4 0 0 1 4 4z" stroke-linecap="round" stroke-linejoin="round" stroke-width="8"/>
 <path d="m34 24h32.38c1.108 0 2 0.892 2 2v12.801c0 1.108-0.892 2-2 2h-32.38c-1.108 0-2-0.892-2-2v-12.801c0-1.108 0.892-2 2-2z" stroke-linecap="round" stroke-linejoin="round" stroke-width="8"/>
</svg>
