<?xml version="1.0" encoding="UTF-8"?>
<svg width="100mm" height="100mm" version="1.1" viewBox="0 0 100 100" xmlns="http://www.w3.org/2000/svg">
 <g stroke-linecap="round">
  <path d="m74 40c-3.5725 5.2e-5 -6.8746 1.9059-8.661 4.9997h-50.339c-2.216 0-4.0003 1.7843-4.0003 4.0003v1.9999c0 2.216 1.7843 3.9998 4.0003 3.9998h50.34c1.7862 3.094 5.0874 5.0001 8.6599 5.0002 5.523 2.34e-4 10-4.4769 10-9.9999-5e-5 -5.523-4.4774-10-10-9.9999z" class="background" />
  <path d="m74 37c-3.9976 5.8e-5 -7.6615 1.9196-10.105 5h-48.895c-3.8264 0-7 3.1736-7 7v2c0 3.8264 3.1741 7 7 7h48.896c2.4436 3.0804 6.1058 4.9998 10.104 5 7.1443 3.03e-4 13-5.8557 13-13-6.5e-5 -7.1443-5.8557-13-13-13zm0 6c3.9016-1.65e-4 7 3.0984 7 7-3.8e-5 3.9016-3.0984 7.0002-7 7-2.5056-1.11e-4 -4.8097-1.33-6.0625-3.5l-0.86523-1.5h-52.072c-0.60611 0-1-0.39436-1-1v-2c0-0.60564 0.39435-1 1-1h52.07l0.86719-1.5c1.2526-2.1694 3.557-3.5 6.0625-3.5z" />
 </g>
</svg>
