<?xml version="1.0" encoding="UTF-8"?>
<svg width="100mm" height="100mm" version="1.1" viewBox="0 0 100 100" xmlns="http://www.w3.org/2000/svg">
 <path d="m56 15v69l-6 5-6-5v-69c0-2.216 1.784-4 4-4h4c2.216 0 4 1.784 4 4z" class="background" />
 <path d="m59 15c0-3.8261-3.1739-7-7-7h-4c-3.8261 0-7 3.1739-7 7v69a3.0003 3.0003 0 0 0 1.0801 2.3047l6 5a3.0003 3.0003 0 0 0 3.8398 0l6-5a3.0003 3.0003 0 0 0 1.0801-2.3047zm-6 0v67.596l-3 2.5-3-2.5v-67.596c0-0.60589 0.39411-1 1-1h4c0.60589 0 1 0.39411 1 1z" />
</svg>
