<?xml version="1.0" encoding="UTF-8"?>
<svg width="100mm" height="100mm" version="1.1" viewBox="0 0 100 100" xmlns="http://www.w3.org/2000/svg">
 <path d="m79.2 50a29.2 29.2 0 0 1-29.2 29.2 29.2 29.2 0 0 1-29.2-29.2 29.2 29.2 0 0 1 29.2-29.2 29.2 29.2 0 0 1 29.2 29.2z" class="background" />
 <path d="m50 17.801c-17.748 0-32.199 14.451-32.199 32.199s14.451 32.199 32.199 32.199 32.199-14.451 32.199-32.199-14.451-32.199-32.199-32.199zm0 6c14.505 0 26.199 11.694 26.199 26.199s-11.694 26.199-26.199 26.199-26.199-11.694-26.199-26.199 11.694-26.199 26.199-26.199z" />
</svg>
