<?xml version="1.0" encoding="UTF-8"?>
<svg width="100mm" height="100mm" version="1.1" viewBox="0 0 100 100" xmlns="http://www.w3.org/2000/svg">
 <path transform="rotate(45)" d="m47.711-27h46c2.216 0 4 1.784 4 4v46c0 2.216-1.784 4-4 4h-46c-2.216 0-4-1.784-4-4v-46c0-2.216 1.784-4 4-4z" class="background" />
 <path transform="rotate(45)" d="m47.711-30c-3.8261 0-7 3.1739-7 7v46c0 3.8261 3.1739 7 7 7h46c3.8261 0 7-3.1739 7-7v-46c0-3.8261-3.1739-7-7-7zm0 6h46c0.60589 0 1 0.39411 1 1v46c0 0.60589-0.39411 1-1 1h-46c-0.60589 0-1-0.39411-1-1v-46c0-0.60589 0.39411-1 1-1z" />
</svg>
