<?xml version="1.0" encoding="UTF-8"?>
<svg width="100mm" height="100mm" version="1.1" viewBox="0 0 100 100" xmlns="http://www.w3.org/2000/svg">
 <path d="m50 54c-2.2091 0-4 1.7909-4 4v30c0 2.2091 1.7909 4 4 4s4-1.7909 4-4v-30c0-2.2091-1.7909-4-4-4z" color="#000000"/>
 <path d="m25.32 10c-5.1112 0-9.3203 4.2091-9.3203 9.3203v29.359c0 5.1112 4.2091 9.3203 9.3203 9.3203h49.359c5.1112 0 9.3203-4.2091 9.3203-9.3203v-29.359c0-5.1112-4.2091-9.3203-9.3203-9.3203zm0 6h49.359c1.891 0 3.3203 1.4293 3.3203 3.3203v29.359c0 1.891-1.4293 3.3203-3.3203 3.3203h-49.359c-1.891 0-3.3203-1.4293-3.3203-3.3203v-29.359c0-1.891 1.4293-3.3203 3.3203-3.3203z" stop-color="#000000" stroke-linecap="round" stroke-linejoin="round"/>
 <path d="m27 19h46c1.108 0 2 0.892 2 2v26c0 1.108-0.892 2-2 2h-46c-1.108 0-2-0.892-2-2v-26c0-1.108 0.892-2 2-2z" stroke-width="8"/>
</svg>
