<?xml version="1.0" encoding="UTF-8"?>
<svg width="100mm" height="100mm" version="1.1" viewBox="0 0 100 100" xmlns="http://www.w3.org/2000/svg">
 <path d="m50 70c-2.2091 0-4 1.7909-4 4v14c0 2.2091 1.7909 4 4 4s4-1.7909 4-4v-14c0-2.2091-1.7909-4-4-4z" color="#000000"/>
 <path d="m38 8c-6.5788 0-12 5.4212-12 12v44c0 6.5788 5.4212 12 12 12h24c6.5788 0 12-5.4212 12-12v-44c0-6.5788-5.4212-12-12-12zm0 8h24c2.2852 0 4 1.7148 4 4v44c0 2.2852-1.7148 4-4 4h-24c-2.2852 0-4-1.7148-4-4v-44c0-2.2852 1.7148-4 4-4z" stop-color="#000000"/>
 <path d="m35.777 10.102a3 3 0 0 0-2.2773 0.30078 3 3 0 0 0-1.0977 4.0977l15 26a3.0003 3.0003 0 0 0 5.1953 0l15-26a3 3 0 0 0-1.0977-4.0977 3 3 0 0 0-4.0977 1.0977l-12.402 21.498-12.402-21.498a3 3 0 0 0-1.8203-1.3984z" stop-color="#000000" stroke-linecap="round" stroke-linejoin="round"/>
 <path d="m50 42a3.0003 3.0003 0 0 0-2.5977 1.5l-15 26a3 3 0 0 0 1.0977 4.0977 3 3 0 0 0 4.0977-1.0977l12.402-21.498 12.402 21.498a3 3 0 0 0 4.0977 1.0977 3 3 0 0 0 1.0977-4.0977l-15-26a3.0003 3.0003 0 0 0-2.5977-1.5z" stop-color="#000000" stroke-linecap="round" stroke-linejoin="round"/>
</svg>
