<?xml version="1.0" encoding="UTF-8"?>
<svg width="100mm" height="150mm" version="1.1" viewBox="0 0 100 150" xmlns="http://www.w3.org/2000/svg">
 <path transform="matrix(1 0 0 1 0 50)" d="m50 60c-2.2091 0-4 1.7909-4 4v24c0 2.2091 1.7909 4 4 4s4-1.7909 4-4v-24c0-2.2091-1.7909-4-4-4z" color="#000000"/>
 <g stroke-linecap="round" stroke-linejoin="round">
  <path d="m35.5 8c-6.5788 0-12 5.4212-12 12v84c0 6.5788 5.4212 12 12 12h29c6.5788 0 12-5.4212 12-12v-84c0-6.5788-5.4212-12-12-12zm0 8h29c2.2852 0 4 1.7148 4 4v84c0 2.2852-1.7148 4-4 4h-29c-2.2852 0-4-1.7148-4-4v-84c0-2.2852 1.7148-4 4-4z" stop-color="#000000"/>
  <path d="m73.936 34.268a4 4 0 0 0-3.0605 0.078125l-45 20a4 4 0 0 0-2.0293 5.2793 4 4 0 0 0 5.2793 2.0293l45-20a4 4 0 0 0 2.0293-5.2793 4 4 0 0 0-2.2188-2.1074z" stop-color="#000000"/>
  <path d="m73.936 54.268a4 4 0 0 0-3.0605 0.078125l-45 20a4 4 0 0 0-2.0293 5.2793 4 4 0 0 0 5.2793 2.0293l45-20a4 4 0 0 0 2.0293-5.2793 4 4 0 0 0-2.2188-2.1074z" stop-color="#000000"/>
 </g>
</svg>
