<?xml version="1.0" encoding="UTF-8"?>
<svg width="100mm" height="150mm" version="1.1" viewBox="0 0 100 150" xmlns="http://www.w3.org/2000/svg">
 <path d="m35.5 8c-6.5788 0-12 5.421-12 12v84c0 6.5788 5.4215 12 12 12h10.5v22c0 2.2091 1.7912 4.0003 4.0003 4.0003s3.9998-1.7912 3.9998-4.0003v-22h10.5c6.5788 0 12-5.4215 12-12v-84c0-6.5788-5.4215-12-12-12h-29zm0 8h29c2.2852 0 4.0003 1.7146 4.0003 3.9998v5.4017l-13.665 6.0735c-0.51596 3.147-1.0317 6.2938-1.5477 9.4408l15.213-6.7613v11.247l-17.202 7.6455c-0.10982 0.66992-0.21936 1.3398-0.32918 2.0097 3.9554-2.0365 7.9098-4.0742 11.865-6.1113-0.64668 2.8632-1.2933 5.7264-1.9399 8.5897l7.6063-3.3807v11.247l-10.43 4.6354c-0.73245 3.2432-1.4648 6.4865-2.1973 9.7296l12.627-5.6121v29.845c0 2.2852-1.7151 4.0003-4.0003 4.0003h-29c-2.2852 0-4.0003-1.7151-4.0003-4.0003v-13.401l8.0765-3.5894c-0.64923-1.2284-1.2985-2.4571-1.9477-3.6856 2.2057 0.49814 4.4116 0.99579 6.6172 1.4945 0.72122-3.2002 1.444-6.4006 2.1668-9.6004l-14.913 6.628v-11.247l7.0724-3.1435c0.51543-3.1467 1.0312-6.2935 1.5467-9.4403l-8.6191 3.8308v-11.247l10.606-4.7139c0.51543-3.1467 1.0307-6.293 1.5462-9.4397l-12.152 5.4007v-21.846c0-2.2852 1.7151-3.9998 4.0003-3.9998z"/>
 <path d="m47.33 27.092-6.9748 42.559 10.731-5.5237-5.2483 23.222-4.1858-0.94723 5.1687 9.7818 8.8759-6.6042-4.0075-0.90692 8.0822-35.766-11.568 5.9547 5.0488-30.799z" stop-color="#000000"/>
</svg>
