<?xml version="1.0" encoding="UTF-8"?>
<svg width="100mm" height="150mm" version="1.1" viewBox="0 0 100 150" xmlns="http://www.w3.org/2000/svg">
 <path d="m35.5 8c-6.5788 0-12 5.421-12 12v84c0 6.5788 5.4215 12 12 12h10.5v22c0 2.2091 1.7912 4.0003 4.0003 4.0003s3.9998-1.7912 3.9998-4.0003v-22h10.5c6.5788 0 12-5.4215 12-12v-84c0-6.5788-5.4215-12-12-12h-29zm0 8h29c2.2852 0 4.0003 1.7146 4.0003 3.9998v25.402l-17.202 7.6455c-0.10982 0.66992-0.21936 1.3398-0.32918 2.0097 3.9554-2.0365 7.9098-4.0742 11.865-6.1113-0.64668 2.8632-1.2933 5.7264-1.9399 8.5897l7.6063-3.3807v49.846c0 2.2852-1.7151 4.0003-4.0003 4.0003h-29c-2.2852 0-4.0003-1.7151-4.0003-4.0003v-33.401l7.0724-3.1435c0.51543-3.1467 1.0312-6.2935 1.5467-9.4403l-8.6191 3.8308v-41.847c0-2.2852 1.7151-3.9998 4.0003-3.9998z"/>
 <path d="m47.33 27.092-6.9748 42.559 10.731-5.5237-5.2483 23.222-4.1858-0.94723 5.1687 9.7818 8.8759-6.6042-4.0075-0.90692 8.0822-35.766-11.568 5.9547 5.0488-30.799z" stop-color="#000000"/>
</svg>
