<?xml version="1.0" encoding="UTF-8"?>
<svg width="100mm" height="150mm" version="1.1" viewBox="0 0 100 150" xmlns="http://www.w3.org/2000/svg">
 <path d="m35.5 8c-6.5788 0-12 5.421-12 12v84c0 6.5788 5.4215 12 12 12h10.5v22c0 2.2091 1.7912 4.0003 4.0003 4.0003s3.9998-1.7912 3.9998-4.0003v-22h10.5c6.5788 0 12-5.4215 12-12v-84c0-6.5788-5.4215-12-12-12h-29zm0 8h29c0.65403 0 1.2615 0.14071 1.7952 0.39481l-19.179 8.5173c2.8552 0.46602 5.7107 0.93234 8.5659 1.3984-0.20938 1.2772-0.41899 2.5541-0.62839 3.8313l13.447-5.9712v11.231l-15.434 6.8595c-0.51596 3.1469-1.0318 6.2938-1.5477 9.4408l16.981-7.5473v11.247l-7.9194 3.5197c-0.73244 3.2432-1.4648 6.4865-2.1973 9.7296l10.117-4.4964v11.247l-12.94 5.7511c-0.44638 1.9762-0.89302 3.9526-1.3395 5.9288 1.7012 0.38209 3.4019 0.76745 5.1025 1.1519l9.1772-4.0788v19.845c0 2.2852-1.7151 4.0003-4.0003 4.0003h-29c-2.2852 0-4.0003-1.7151-4.0003-4.0003v-3.4003l12.357-5.4916c-1.2487-2.3627-2.4973-4.7258-3.746-7.0885l-8.6108 3.8272v-11.247l15.226-6.767c0.43259-1.9149 0.86515-3.83 1.2976-5.7449-3.4786 1.7876-6.9555 3.5783-10.433 5.3671l0.76223-4.6535-6.8523 3.0453v-11.247l8.8393-3.9284c0.51543-3.1467 1.0307-6.2935 1.5462-9.4402l-10.385 4.6157v-11.245l12.371-5.4937c0.5155-3.1472 1.0307-6.2941 1.5462-9.4413l-13.917 6.1805v-11.847c0-2.2852 1.7151-3.9998 4.0003-3.9998z"/>
 <path d="m47.33 27.092-6.9748 42.559 10.731-5.5237-5.2483 23.222-4.1858-0.94723 5.1687 9.7818 8.8759-6.6042-4.0075-0.90692 8.0822-35.766-11.568 5.9547 5.0488-30.799z" stop-color="#000000"/>
</svg>
