<?xml version="1.0" encoding="UTF-8"?>
<svg width="100mm" height="150mm" version="1.1" viewBox="0 0 100 150" xmlns="http://www.w3.org/2000/svg">
 <path d="m35.5 8c-6.5788 0-12 5.421-12 12v84c0 6.5788 5.4215 12 12 12h10.5v22c0 2.2091 1.7912 4.0003 4.0003 4.0003s3.9998-1.7912 3.9998-4.0003v-22h10.5c6.5788 0 12-5.4215 12-12v-84c0-6.5788-5.4215-12-12-12h-29zm0 8h29c2.2852 0 4.0003 1.7146 4.0003 3.9998v15.402l-15.434 6.8595c-0.51596 3.147-1.0318 6.2938-1.5477 9.4408l16.981-7.5473v11.247l-7.9194 3.5197c-0.73244 3.2432-1.4648 6.4865-2.1973 9.7296l10.117-4.4964v39.846c0 2.2852-1.7151 4.0003-4.0003 4.0003h-29c-2.2852 0-4.0003-1.7151-4.0003-4.0003v-23.401l15.226-6.767c0.43255-1.9147 0.8652-3.8296 1.2976-5.7444-3.4786 1.7876-6.9555 3.5783-10.433 5.3671 0.2541-1.5513 0.50813-3.1027 0.76223-4.654l-6.8523 3.0453v-11.247l8.8393-3.9284c0.51543-3.1467 1.0307-6.2935 1.5462-9.4403l-10.385 4.6157v-31.846c0-2.2852 1.7151-3.9998 4.0003-3.9998z"/>
 <path d="m47.33 27.092-6.9748 42.559 10.731-5.5237-5.2483 23.222-4.1858-0.94723 5.1687 9.7818 8.8759-6.6042-4.0075-0.90692 8.0822-35.766-11.568 5.9547 5.0488-30.799z" stop-color="#000000"/>
</svg>
