<?xml version="1.0" encoding="UTF-8"?>
<svg width="100mm" height="100mm" version="1.1" viewBox="0 0 100 100" xmlns="http://www.w3.org/2000/svg">
 <path d="m50 63c-2.2091 0-4 1.7909-4 4v21c0 2.2091 1.7909 4 4 4s4-1.7909 4-4v-21c0-2.2091-1.7909-4-4-4z" color="#000000"/>
 <path d="m50 8c-2.8869 0-5.6951 1.4426-7.5938 3.7988l-15.674 19.453c-3.7973 4.7125-3.7973 11.422 0 16.135l15.674 19.453c1.8986 2.3562 4.7069 3.7988 7.5938 3.7988s5.6932-1.4426 7.5918-3.7988l15.676-19.453c3.7972-4.7125 3.7972-11.422 0-16.135l-15.676-19.453c-1.8986-2.3562-4.7049-3.7988-7.5918-3.7988zm0 8c0.35105 0 0.78084 0.09554 1.3633 0.81836l15.674 19.453c1.1649 1.4456 1.1649 4.6501 0 6.0957l-15.674 19.453c-0.58244 0.72282-1.0122 0.81836-1.3633 0.81836s-0.7828-0.09554-1.3652-0.81836l-15.674-19.453c-1.1649-1.4456-1.1649-4.6501 0-6.0957l15.674-19.453c0.58244-0.72282 1.0142-0.81836 1.3652-0.81836z" stop-color="#000000"/>
</svg>
