<?xml version="1.0" encoding="UTF-8"?>
<svg width="100mm" height="140mm" version="1.1" viewBox="0 0 100 140" xmlns="http://www.w3.org/2000/svg">
 <g stroke-linecap="round">
  <path d="m50 6c-2.2091 0-4 1.7909-4 4v120c0 2.2091 1.7909 4 4 4s4-1.7909 4-4v-120c0-2.2091-1.7909-4-4-4z" stop-color="#000000"/>
  <g stroke-linejoin="round">
   <path d="m40.691 5.0059a3 3 0 0 0-2.1738 0.74219 3 3 0 0 0-0.26953 4.2344l44 50a3 3 0 0 0 4.2344 0.26953 3 3 0 0 0 0.26953-4.2344l-44-50a3 3 0 0 0-2.0605-1.0117z" stop-color="#000000"/>
   <path d="m86.482 40.748a3 3 0 0 0-4.2344 0.26953l-44 50a3 3 0 0 0 0.26953 4.2344 3 3 0 0 0 4.2344-0.26953l44-50a3 3 0 0 0-0.26953-4.2344z" stop-color="#000000"/>
   <path d="m65.416 33.92a3 3 0 0 0-2.0684 0.99609l-50.086 56.086a3 3 0 0 0 0.24023 4.2363 3 3 0 0 0 4.2363-0.24023l50.084-56.086a3 3 0 0 0-0.23828-4.2344 3 3 0 0 0-2.168-0.75781z" stop-color="#000000"/>
   <path d="m59.309 5.0059a3 3 0 0 0-2.0605 1.0117l-44 50a3 3 0 0 0 0.26953 4.2344 3 3 0 0 0 4.2344-0.26953l44-50a3 3 0 0 0-0.26953-4.2344 3 3 0 0 0-2.1738-0.74219z" stop-color="#000000"/>
   <path d="m15.691 40.006a3 3 0 0 0-2.1738 0.74219 3 3 0 0 0-0.26953 4.2344l44 50a3 3 0 0 0 4.2344 0.26953 3 3 0 0 0 0.26953-4.2344l-44-50a3 3 0 0 0-2.0605-1.0117z" stop-color="#000000"/>
   <path d="m32.416 34.678a3 3 0 0 0-0.23828 4.2344l50.084 56.086a3 3 0 0 0 4.2363 0.24023 3 3 0 0 0 0.24023-4.2363l-50.086-56.086a3 3 0 0 0-4.2363-0.23828z" stop-color="#000000"/>
  </g>
 </g>
</svg>
