<?xml version="1.0" encoding="UTF-8"?>
<svg width="100mm" height="140mm" version="1.1" viewBox="0 0 100 140" xmlns="http://www.w3.org/2000/svg">
 <g stroke-linecap="round">
  <path d="m50 6c-2.2091 0-4 1.7909-4 4v120c0 2.2091 1.7909 4 4 4s4-1.7909 4-4v-120c0-2.2091-1.7909-4-4-4z" stop-color="#000000"/>
  <g stroke-linejoin="round">
   <path d="m21.412 4.3535a3 3 0 0 0-4.0586 1.2344 3 3 0 0 0 1.2344 4.0586l60 32a3 3 0 0 0 4.0586-1.2344 3 3 0 0 0-1.2344-4.0586z" stop-color="#000000"/>
   <path d="m78.588 4.3535-60 32a3 3 0 0 0-1.2344 4.0586 3 3 0 0 0 4.0586 1.2344l60-32a3 3 0 0 0 1.2344-4.0586 3 3 0 0 0-4.0586-1.2344z" stop-color="#000000"/>
   <path d="m19.127 21.131a3 3 0 0 0-1.7734 1.457 3 3 0 0 0 1.2344 4.0586l60 32a3 3 0 0 0 4.0586-1.2344 3 3 0 0 0-1.2344-4.0586l-60-32a3 3 0 0 0-2.2852-0.22266z" stop-color="#000000"/>
   <path d="m78.588 21.354-60 32a3 3 0 0 0-1.2344 4.0586 3 3 0 0 0 4.0586 1.2344l60-32a3 3 0 0 0 1.2344-4.0586 3 3 0 0 0-4.0586-1.2344z" stop-color="#000000"/>
   <path d="m19.127 64.131a3 3 0 0 0-1.7734 1.457 3 3 0 0 0 1.2344 4.0586l60 32a3 3 0 0 0 4.0586-1.2344 3 3 0 0 0-1.2344-4.0586l-60-32a3 3 0 0 0-2.2852-0.22266z" stop-color="#000000"/>
   <path d="m78.588 64.354-60 32a3 3 0 0 0-1.2344 4.0586 3 3 0 0 0 4.0586 1.2344l60-32a3 3 0 0 0 1.2344-4.0586 3 3 0 0 0-4.0586-1.2344z" stop-color="#000000"/>
   <path d="m19.127 81.131a3 3 0 0 0-1.7734 1.457 3 3 0 0 0 1.2344 4.0586l60 32a3 3 0 0 0 4.0586-1.2344 3 3 0 0 0-1.2344-4.0586l-60-32a3 3 0 0 0-2.2852-0.22266z" stop-color="#000000"/>
   <path d="m78.588 81.354-60 32a3 3 0 0 0-1.2344 4.0586 3 3 0 0 0 4.0586 1.2344l60-32a3 3 0 0 0 1.2344-4.0586 3 3 0 0 0-4.0586-1.2344z" stop-color="#000000"/>
  </g>
 </g>
</svg>
