<?xml version="1.0" encoding="UTF-8"?>
<svg width="120mm" height="100mm" version="1.1" viewBox="0 0 120 100" xmlns="http://www.w3.org/2000/svg">
 <path d="m34 54c-2.2091 0-4 1.7909-4 4v30c0 2.2091 1.7909 4 4 4s4-1.7909 4-4v-30c0-2.2091-1.7909-4-4-4z" color="#000000"/>
 <path d="m19.32 10c-5.1112 0-9.3203 4.2091-9.3203 9.3203v29.359c0 5.1112 4.2091 9.3203 9.3203 9.3203h81.359c5.1112 0 9.3203-4.2091 9.3203-9.3203v-29.359c0-5.1112-4.2091-9.3203-9.3203-9.3203zm0 6h81.359c1.891 0 3.3203 1.4293 3.3203 3.3203v29.359c0 1.891-1.4293 3.3203-3.3203 3.3203h-81.359c-1.891 0-3.3203-1.4293-3.3203-3.3203v-29.359c0-1.891 1.4293-3.3203 3.3203-3.3203z" stop-color="#000000" stroke-linecap="round" stroke-linejoin="round"/>
 <path d="m86 54c-2.2091 0-4 1.7909-4 4v30c0 2.2091 1.7909 4 4 4s4-1.7909 4-4v-30c0-2.2091-1.7909-4-4-4z" color="#000000"/>
 <g>
  <path d="m30 55 18-42" stop-color="#000000"/>
  <path d="m44.324 11.424-18 42 7.3516 3.1523 18-42z" stop-color="#000000"/>
  <path d="m72.001 55 18-42" stop-color="#000000"/>
  <path d="m86.324 11.424-18 42 7.3535 3.1523 18-42z" stop-color="#000000"/>
  <path d="m51.001 55 18-42" stop-color="#000000"/>
  <path d="m65.324 11.424-18 42 7.3535 3.1523 18-42z" stop-color="#000000"/>
 </g>
</svg>
