<?xml version="1.0" encoding="UTF-8"?>
<svg width="100mm" height="100mm" version="1.1" viewBox="0 0 100 100" xmlns="http://www.w3.org/2000/svg">
 <path d="m50 54c-2.2091 0-4 1.7909-4 4v30c0 2.2091 1.7909 4 4 4s4-1.7909 4-4v-30c0-2.2091-1.7909-4-4-4z" color="#000000"/>
 <path d="m50 8c-14.312 0-26 11.688-26 26s11.688 26 26 26 26-11.688 26-26-11.688-26-26-26zm0 8c9.9885 0 18 8.0115 18 18s-8.0115 18-18 18-18-8.0115-18-18 8.0115-18 18-18z" stop-color="#000000" stroke-linecap="round" stroke-linejoin="round"/>
</svg>
