<?xml version="1.0" encoding="UTF-8"?>
<svg width="100mm" height="100mm" version="1.1" viewBox="0 0 100 100" xmlns="http://www.w3.org/2000/svg">
 <path d="m13.838 20.996c-2.8358-0.076599-5.6156 1.3651-7.1391 4.0039-2.216 3.8382-0.91024 8.712 2.928 10.928l24.373 14.072-24.373 14.071c-3.8382 2.216-5.144 7.0903-2.928 10.929 2.216 3.8382 7.0898 5.144 10.928 2.928l32.373-18.691 32.373 18.691c3.8382 2.216 8.712 0.91024 10.928-2.928s0.91024-8.7125-2.928-10.929l-24.373-14.071 24.373-14.072c3.8382-2.216 5.144-7.0898 2.928-10.928-2.216-3.8382-7.0898-5.144-10.928-2.928l-32.373 18.69-32.373-18.69c-1.1994-0.6925-2.4999-1.0411-3.7889-1.0759z" class="background" />
 <path d="m13.945 16.998c-4.2606-0.11508-8.4494 2.0849-10.711 6.002-3.2893 5.6973-1.3048 13.103 4.3926 16.393l18.371 10.607-18.371 10.607c-5.6976 3.2895-7.682 10.695-4.3926 16.393 3.2894 5.6974 10.695 7.6819 16.393 4.3926l30.373-17.537 30.373 17.537c5.6973 3.2893 13.103 1.3048 16.393-4.3926 3.2894-5.6974 1.305-13.103-4.3926-16.393l-18.371-10.607 18.371-10.607c5.6974-3.2894 7.6819-10.695 4.3926-16.393-3.2894-5.6974-10.695-7.6819-16.393-4.3926l-30.373 17.537-30.373-17.537c-1.7803-1.0278-3.7449-1.5571-5.6816-1.6094zm-0.21484 7.9961c0.64125 0.01732 1.2779 0.18582 1.8965 0.54297l32.373 18.689a4.0004 4.0004 0 0 0 4 0l32.373-18.689c1.9792-1.1427 4.3222-0.51617 5.4648 1.4629 1.1427 1.9792 0.51421 4.3222-1.4648 5.4648l-24.373 14.07a4.0004 4.0004 0 0 0 0 6.9297l24.373 14.07c1.9788 1.1425 2.6074 3.4858 1.4648 5.4648-1.1426 1.9791-3.4857 2.6075-5.4648 1.4648l-32.373-18.691a4.0004 4.0004 0 0 0-4 0l-32.373 18.691c-1.9792 1.1427-4.3222 0.51422-5.4648-1.4648-1.1426-1.979-0.51398-4.3224 1.4648-5.4648l24.373-14.07a4.0004 4.0004 0 0 0 0-6.9297l-24.373-14.07c-1.9791-1.1426-2.6075-3.4857-1.4648-5.4648 0.78551-1.3605 2.1573-2.044 3.5684-2.0059z" stop-color="#000000" stroke-linejoin="round"/>
</svg>
