<?xml version="1.0" encoding="UTF-8"?>
<svg width="100mm" height="100mm" version="1.1" viewBox="0 0 100 100" xmlns="http://www.w3.org/2000/svg">
 <path d="m28 24c-6.5788 0-12 5.4212-12 12v44c0 6.5788 5.4212 12 12 12h44c6.5788 0 12-5.4212 12-12v-6.2207c0-4.12-1.6375-8.075-4.5508-10.988l-34.748-34.746c-2.5888-2.5888-6.1026-4.0449-9.7637-4.0449zm0 8h6.9375c1.5425 0 3.0167 0.61049 4.1074 1.7012l34.746 34.748c1.4151 1.4151 2.209 3.3288 2.209 5.3301v6.2207c0 2.2852-1.7148 4-4 4h-44c-2.2852 0-4-1.7148-4-4v-44c0-2.2852 1.7148-4 4-4z" stop-color="#000000"/>
</svg>
