<?xml version="1.0" encoding="UTF-8"?>
<svg width="100mm" height="100mm" version="1.1" viewBox="0 0 100 100" xmlns="http://www.w3.org/2000/svg">
 <path d="m50 49c-2.2091 0-4 1.7909-4 4v35c0 2.2091 1.7909 4 4 4s4-1.7909 4-4v-35c0-2.2091-1.7909-4-4-4z" color="#000000"/>
 <g stroke-linecap="round" stroke-linejoin="round">
  <path d="m33 8c-6.5788 0-12 5.4212-12 12v24c0 6.5788 5.4212 12 12 12h34c6.5788 0 12-5.4212 12-12v-24c0-6.5788-5.4212-12-12-12zm0 8h34c2.2852 0 4 1.7148 4 4v24c0 2.2852-1.7148 4-4 4h-34c-2.2852 0-4-1.7148-4-4v-24c0-2.2852 1.7148-4 4-4z" stop-color="#000000"/>
  <path d="m34 29a3 3 0 0 0-3 3 3 3 0 0 0 3 3h32a3 3 0 0 0 3-3 3 3 0 0 0-3-3z" stop-color="#000000"/>
  <path d="m50 19a3 3 0 0 0-3 3v21a3 3 0 0 0 3 3 3 3 0 0 0 3-3v-21a3 3 0 0 0-3-3z" stop-color="#000000"/>
 </g>
</svg>
