<?xml version="1.0" encoding="UTF-8"?>
<svg width="100mm" height="100mm" version="1.1" viewBox="0 0 100 100" xmlns="http://www.w3.org/2000/svg">
 <path d="m50 39a4 4 0 0 0-4 4v45a4 4 0 0 0 4 4 4 4 0 0 0 4-4v-45a4 4 0 0 0-4-4z" color="#000000"/>
 <path d="m50 6c-17.905 0-32.653 13.932-33.912 31.545-0.25157 3.5195 2.7195 6.4551 6.084 6.4551h55.963c3.1937 0 6.0048-2.7781 5.8008-6.1074-1.089-17.774-15.913-31.893-33.936-31.893zm0 8c12.498 0 22.768 8.7764 25.294 20.486 0.17933 0.83142-0.40907 1.5143-1.2597 1.5143h-47.991c-0.89546 0-1.515-0.71892-1.3235-1.5935 2.5553-11.668 12.811-20.406 25.28-20.406z" stop-color="#000000"/>
</svg>
