<?xml version="1.0" encoding="UTF-8"?>
<svg width="100mm" height="150mm" version="1.1" viewBox="0 0 100 150" xmlns="http://www.w3.org/2000/svg">
 <path transform="matrix(1 0 0 1 0 50)" d="m50 43c-2.2091 0-4 1.7909-4 4v41c0 2.2091 1.7909 4 4 4s4-1.7909 4-4v-41c0-2.2091-1.7909-4-4-4z" color="#000000"/>
 <path transform="matrix(1 0 0 1 0 50)" d="m50 7.6348c-1.9117 0-3.8228 0.83515-5.0176 2.5078l-21.301 29.82c-2.5629 3.588 0.24298 9.0371 4.6523 9.0371h43.352c4.4017 0 7.201-5.4397 4.6426-9.0215l-21.311-29.836c-1.1948-1.6727-3.1059-2.5078-5.0176-2.5078zm0.97263 10.61 15.348 21.485a0.80387 0.80387 117.23 0 1-0.65412 1.2712h-31.245a0.84915 0.84915 62.77 0 1-0.69096-1.3427l15.297-21.413a1.1953 1.1953 0 0 1 1.9453 0z" stop-color="#000000"/>
 <path transform="matrix(1 0 0 1 0 16.493)" d="m50 7.6348c-1.9117 0-3.8228 0.83515-5.0176 2.5078l-21.301 29.82c-2.5629 3.588 0.24298 9.0371 4.6523 9.0371h43.352c4.4017 0 7.201-5.4397 4.6426-9.0215l-21.311-29.836c-1.1948-1.6727-3.1059-2.5078-5.0176-2.5078zm0.97263 10.61 15.348 21.485a0.80387 0.80387 117.23 0 1-0.65412 1.2712h-31.245a0.84915 0.84915 62.77 0 1-0.69096-1.3427l15.297-21.413a1.1953 1.1953 0 0 1 1.9453 0z" stop-color="#000000"/>
 <g stroke-linecap="round" stroke-linejoin="round">
  <path d="m46 78.818a1.5002 1.5002 0 0 0-1.5 1.5v2.5273a1.5002 1.5002 0 0 0 1.5 1.5h8a1.5002 1.5002 0 0 0 1.5-1.5v-0.52734a1.5002 1.5002 0 0 0-1.5-1.5h-2.0723l-0.58594-1.1719a1.5002 1.5002 0 0 0-1.3418-0.82812z" stop-color="#000000"/>
  <path d="m48.5 85.694a1.5 1.5 0 0 1-1.5 1.5 1.5 1.5 0 0 1-1.5-1.5 1.5 1.5 0 0 1 1.5-1.5 1.5 1.5 0 0 1 1.5 1.5z" stroke-width="4"/>
  <path d="m54.5 85.694a1.5 1.5 0 0 1-1.5 1.5 1.5 1.5 0 0 1-1.5-1.5 1.5 1.5 0 0 1 1.5-1.5 1.5 1.5 0 0 1 1.5 1.5z" stroke-width="4"/>
  <path d="m46 45.311a1.5002 1.5002 0 0 0-1.5 1.5v2.5273a1.5002 1.5002 0 0 0 1.5 1.5h8a1.5002 1.5002 0 0 0 1.5-1.5v-0.52734a1.5002 1.5002 0 0 0-1.5-1.5h-2.0723l-0.58594-1.1699a1.5002 1.5002 0 0 0-1.3418-0.83008z" stop-color="#000000"/>
  <path d="m48.5 52.187a1.5 1.5 0 0 1-1.5 1.5 1.5 1.5 0 0 1-1.5-1.5 1.5 1.5 0 0 1 1.5-1.5 1.5 1.5 0 0 1 1.5 1.5z" stroke-width="4"/>
  <path d="m54.5 52.187a1.5 1.5 0 0 1-1.5 1.5 1.5 1.5 0 0 1-1.5-1.5 1.5 1.5 0 0 1 1.5-1.5 1.5 1.5 0 0 1 1.5 1.5z" stroke-width="4"/>
 </g>
</svg>
