<?xml version="1.0" encoding="UTF-8"?>
<svg width="100mm" height="100mm" version="1.1" viewBox="0 0 100 100" xmlns="http://www.w3.org/2000/svg">
 <path d="m50 43c-2.2091 0-4 1.7909-4 4v41c0 2.2091 1.7909 4 4 4s4-1.7909 4-4v-41c0-2.2091-1.7909-4-4-4z" color="#000000"/>
 <path d="m50 7.6348c-1.9117 0-3.8228 0.83515-5.0176 2.5078l-21.301 29.82c-2.5629 3.588 0.24298 9.0371 4.6523 9.0371h43.352c4.4017 0 7.201-5.4397 4.6426-9.0215l-21.311-29.836c-1.1948-1.6727-3.1059-2.5078-5.0176-2.5078zm0.97263 10.61 15.348 21.485a0.80387 0.80387 117.23 0 1-0.65412 1.2712h-31.245a0.84915 0.84915 62.77 0 1-0.69096-1.3427l15.297-21.413a1.1953 1.1953 0 0 1 1.9453 0z" stop-color="#000000"/>
 <path d="m51.028 30.156q0-0.38585-0.15848-0.66146-0.15847-0.27561-0.54432-0.43408-0.26872-0.11024-0.62701-0.13091-0.35829-0.02756-0.83371-0.02756h-0.95774v2.763h0.81304q0.6339 0 1.0611-0.06201 0.42719-0.06201 0.71658-0.2825 0.27561-0.2136 0.39963-0.46853 0.13091-0.26183 0.13091-0.69591zm4.1272 7.1176h-3.2315l-2.7974-3.762h-1.2196v3.762h-2.6321v-10.259h4.4373q0.9095 0 1.5641 0.10335 0.65457 0.10335 1.2265 0.44786 0.57878 0.34451 0.9164 0.89572 0.34451 0.54432 0.34451 1.3711 0 1.1369-0.53054 1.8535-0.52365 0.71658-1.5021 1.192z" stroke-linecap="round" stroke-linejoin="round" stroke-width="3" aria-label="R"/>
</svg>
