<?xml version="1.0" encoding="UTF-8"?>
<svg width="100mm" height="100mm" version="1.1" viewBox="0 0 100 100" xmlns="http://www.w3.org/2000/svg">
 <path d="m50 43c-2.2091 0-4 1.7909-4 4v41c0 2.2091 1.7909 4 4 4s4-1.7909 4-4v-41c0-2.2091-1.7909-4-4-4z" color="#000000"/>
 <path d="m50.004 49.365c1.9082 0 3.8159-0.83515 5.0085-2.5078l21.263-29.82c2.5583-3.588-0.24254-9.0371-4.6439-9.0371h-43.274c-4.3938 0-7.188 5.4397-4.6342 9.0215l21.273 29.836c1.1926 1.6727 3.1003 2.5078 5.0085 2.5078zm-0.97087-10.61-15.32-21.485a0.80242 0.80387 0 0 1 0.65294-1.2712h31.189a0.84762 0.84915 0 0 1 0.68971 1.3427l-15.269 21.413a1.1931 1.1953 0 0 1-1.9418 0z" stop-color="#000000" stroke-width=".9991"/>
</svg>
