<?xml version="1.0" encoding="UTF-8"?>
<svg width="100mm" height="176mm" version="1.1" viewBox="0 0 100 176" xmlns="http://www.w3.org/2000/svg">
 <path d="m50 70c-2.2091 0-4 1.7909-4 4v28c0 2.2091 1.7909 4 4 4s4-1.7909 4-4v-28c0-2.2091-1.7909-4-4-4z" color="#000000"/>
 <g stroke-linecap="round" stroke-linejoin="round">
  <path d="m38 8c-6.5788 0-12 5.4212-12 12v44c0 6.5788 5.4212 12 12 12h24c6.5788 0 12-5.4212 12-12v-44c0-6.5788-5.4212-12-12-12zm0 8h24c2.2852 0 4 1.7148 4 4v44c0 2.2852-1.7148 4-4 4h-24c-2.2852 0-4-1.7148-4-4v-44c0-2.2852 1.7148-4 4-4z" stop-color="#000000"/>
  <path d="m38 100c-6.5788 0-12 5.4212-12 12v44c0 6.5788 5.4212 12 12 12h24c6.5788 0 12-5.4212 12-12v-44c0-6.5788-5.4212-12-12-12zm0 8h24c2.2852 0 4 1.7148 4 4v44c0 2.2852-1.7148 4-4 4h-24c-2.2852 0-4-1.7148-4-4v-44c0-2.2852 1.7148-4 4-4z" stop-color="#000000"/>
  <path d="m64.803 11.76a3 3 0 0 0-3.6934 2.0859l-11.131 40.029-11.092-39.338a3 3 0 0 0-3.7012-2.0742 3 3 0 0 0-2.0723 3.7012l14 49.65a3.0003 3.0003 0 0 0 5.7773-0.01172l14-50.35a3 3 0 0 0-2.0879-3.6934z" stop-color="#000000"/>
  <path d="m64.803 103.76a3 3 0 0 0-3.6934 2.0859l-11.131 40.029-11.092-39.338a3 3 0 0 0-3.7012-2.0742 3 3 0 0 0-2.0723 3.7031l14 49.648a3.0003 3.0003 0 0 0 5.7773-0.0117l14-50.35a3 3 0 0 0-2.0879-3.6934z" stop-color="#000000"/>
 </g>
</svg>
